<?xml version="1.0" standalone="no"?>
<!DOCTYPE svg PUBLIC "-//W3C//DTD SVG 20010904//EN"
 "http://www.w3.org/TR/2001/REC-SVG-20010904/DTD/svg10.dtd">
<svg version="1.0" xmlns="http://www.w3.org/2000/svg"
 width="1022.000000pt" height="952.000000pt" viewBox="0 0 1022.000000 952.000000"
 preserveAspectRatio="xMidYMid meet">

<g transform="translate(0.000000,952.000000) scale(0.100000,-0.100000)"
fill="#000000" stroke="none">
<path d="M5590 9048 c-246 -40 -444 -87 -580 -138 -47 -18 -94 -34 -105 -37
-11 -3 -80 -34 -152 -69 -293 -139 -508 -300 -692 -519 -193 -230 -309 -473
-383 -805 -29 -134 -37 -408 -14 -543 43 -250 149 -471 313 -647 30 -33 60
-60 67 -60 6 0 17 15 24 33 36 91 132 273 202 386 232 370 551 663 922 845
136 66 292 124 408 152 36 8 83 19 105 24 198 47 321 50 1968 50 1134 0 1537
3 1537 11 0 10 -139 285 -195 384 -12 22 -51 94 -85 160 -35 66 -77 147 -95
180 -18 33 -60 114 -95 180 -35 66 -71 134 -80 150 -9 17 -45 85 -79 153 l-63
122 -1436 -1 c-796 -1 -1462 -6 -1492 -11z"/>
<path d="M7302 7218 c-24 -77 -126 -275 -197 -383 -125 -189 -199 -281 -344
-425 -113 -112 -146 -141 -201 -180 -19 -13 -37 -27 -40 -31 -30 -41 -437
-269 -480 -269 -9 0 -20 -4 -25 -8 -6 -4 -28 -14 -50 -21 -22 -7 -49 -16 -60
-20 -100 -41 -306 -81 -510 -101 -49 -4 -795 -9 -1657 -9 -1121 -1 -1568 -4
-1568 -12 0 -6 26 -61 59 -122 32 -62 80 -152 106 -202 26 -49 67 -126 90
-170 23 -44 80 -152 125 -240 45 -88 95 -183 111 -211 85 -155 129 -238 129
-245 0 -4 16 -35 36 -68 l36 -61 1416 0 1416 0 164 26 c153 23 371 73 417 94
11 5 56 21 100 35 237 78 531 239 695 380 124 107 308 307 330 358 3 7 23 39
45 72 104 153 188 366 242 605 34 157 42 371 19 525 -23 152 -38 204 -95 328
-17 37 -31 70 -31 73 0 3 -25 45 -56 92 -61 94 -179 232 -197 232 -7 0 -18
-19 -25 -42z"/>
<path d="M2568 3598 l-3 -143 -277 -3 -278 -2 0 -125 0 -125 278 -2 277 -3 2
-590 c2 -514 1 -593 -13 -610 -13 -18 -29 -20 -139 -23 l-124 -4 -3 -26 c-2
-15 -2 -65 0 -111 l4 -84 226 5 c211 4 230 6 271 27 53 27 85 61 114 121 22
45 22 51 27 670 l5 625 103 3 102 3 0 124 0 124 -102 3 -103 3 -5 140 -5 140
-177 3 -177 2 -3 -142z"/>
<path d="M3807 3734 c-4 -4 -7 -67 -7 -141 0 -73 -1 -134 -2 -135 -2 -1 -131
-5 -288 -8 l-285 -5 -3 -122 -3 -123 279 0 c310 0 292 4 292 -68 0 -64 -22
-204 -59 -372 -11 -51 -67 -185 -107 -258 -76 -139 -207 -284 -354 -391 -47
-34 -88 -70 -92 -79 -4 -9 -7 -83 -7 -164 -1 -122 2 -148 13 -148 18 0 224
115 299 167 396 275 626 668 667 1143 6 69 13 135 16 148 l4 22 265 0 c251 0
265 -1 275 -19 6 -13 10 -202 10 -544 0 -561 -1 -567 -50 -612 -19 -17 -42
-21 -158 -26 -76 -4 -138 -8 -140 -8 -1 -1 -1 -49 0 -108 l3 -108 230 1 c214
1 234 3 290 24 82 31 143 94 173 180 l22 65 0 703 0 702 -447 0 c-247 0 -453
4 -460 8 -9 5 -13 50 -15 142 l-3 135 -176 3 c-96 1 -178 -1 -182 -4z"/>
<path d="M5453 3728 c-5 -7 -15 -44 -22 -83 -22 -119 -62 -241 -114 -340 -28
-55 -93 -142 -114 -154 -15 -8 -18 -25 -18 -113 0 -117 -1 -116 84 -77 45 21
55 19 56 -9 1 -9 2 -290 3 -624 l2 -608 139 0 c117 0 140 2 145 16 3 9 6 200
6 425 0 271 3 408 10 404 6 -3 10 -16 10 -28 0 -67 73 -315 123 -416 l31 -63
-53 -49 c-30 -27 -60 -49 -67 -49 -11 0 -14 -25 -14 -116 l0 -116 68 37 c37
21 98 60 137 88 38 28 75 50 80 50 6 0 38 -17 70 -38 98 -63 189 -103 272
-120 65 -13 149 -15 503 -13 l425 3 0 95 0 95 -440 5 -440 5 -59 27 c-32 16
-85 44 -117 64 -65 39 -70 52 -41 112 11 20 25 58 32 85 16 58 30 70 30 25 0
-56 3 -57 165 -60 l150 -3 5 -85 5 -85 115 -3 c168 -4 160 -9 160 93 l0 85
218 2 217 3 3 97 3 98 -218 2 -218 3 -6 42 c-3 24 -2 48 2 55 6 10 56 14 184
16 l176 3 -3 97 -3 97 -174 2 c-95 1 -176 4 -179 7 -10 10 -9 80 1 94 6 7 36
12 81 12 167 0 235 59 259 225 l11 74 40 3 41 3 0 90 0 90 -39 5 c-51 6 -56
24 -51 186 l3 124 -36 1 c-21 0 -93 0 -162 -1 -69 0 -132 4 -140 9 -10 7 -15
27 -15 58 l0 48 -135 0 -135 0 -3 -45 c-2 -25 -8 -49 -13 -55 -5 -5 -44 -10
-87 -10 -42 -1 -96 -2 -119 -3 l-43 -2 0 -94 c0 -113 -5 -109 138 -105 54 1
103 -1 110 -5 7 -4 12 -22 12 -41 0 -66 4 -65 -167 -65 l-155 0 7 28 c4 15 9
84 12 153 l5 127 -50 3 c-27 2 -124 3 -215 1 l-166 -3 -16 -67 c-9 -37 -21
-85 -26 -106 -13 -50 -5 -55 75 -49 38 3 71 1 84 -6 22 -12 22 -12 -19 -94
-23 -45 -55 -101 -70 -124 -16 -23 -29 -45 -29 -48 0 -4 -20 -34 -45 -66 l-45
-60 -1 -92 c-1 -51 -1 -98 0 -104 1 -10 31 -13 115 -13 63 0 121 -3 130 -6 14
-5 16 -30 16 -168 0 -174 -7 -239 -23 -233 -18 6 -57 178 -57 250 l0 37 -120
0 c-107 0 -120 2 -120 18 -1 9 0 153 0 319 l1 302 32 83 c18 46 39 110 46 143
7 33 17 76 22 96 5 20 9 53 9 73 l0 36 -134 0 c-95 0 -136 -4 -143 -12z m1419
-313 c13 -17 9 -82 -6 -94 -8 -7 -30 -11 -48 -9 -32 3 -33 4 -36 55 -2 43 0
52 15 55 33 6 68 3 75 -7z m-690 -212 l3 -78 155 -5 155 -5 0 -50 0 -50 -127
-3 -128 -3 0 -94 0 -95 119 0 c134 0 144 -5 139 -67 l-3 -38 -130 -5 -130 -5
-3 -97 -3 -98 124 0 c82 0 127 -4 135 -12 16 -16 16 -80 0 -96 -17 -17 -284
-17 -294 0 -4 7 -7 136 -6 287 1 151 0 283 -4 293 -5 15 -17 18 -89 18 -119 0
-135 9 -92 52 30 31 100 133 126 186 34 66 50 56 53 -35z m694 -109 c9 -37
-24 -79 -62 -79 -26 0 -29 4 -34 41 -8 58 -4 64 46 64 39 0 44 -3 50 -26z"/>
<path d="M8033 3728 c-5 -7 -16 -40 -23 -73 -7 -33 -15 -62 -18 -65 -2 -3
-105 -7 -229 -10 l-225 -5 1 -490 c1 -269 -2 -495 -7 -502 -5 -8 -44 -13 -112
-15 l-105 -3 -3 -112 -3 -113 516 0 c329 0 515 -4 515 -10 0 -41 -456 -217
-855 -330 -82 -23 -156 -44 -162 -46 -16 -4 -19 -214 -3 -214 11 0 41 7 235
55 77 20 172 45 210 56 39 11 88 25 110 31 22 6 49 14 60 18 11 4 85 29 165
54 80 26 164 56 187 67 24 10 46 19 51 19 13 0 202 85 275 124 71 38 97 44 98
24 3 -61 -4 -185 -12 -199 -12 -24 -70 -39 -146 -39 l-63 0 0 -105 0 -105 152
0 c192 0 257 18 321 90 67 74 70 87 76 373 l6 257 125 128 c141 143 214 228
202 236 -4 2 -77 5 -162 5 -85 1 -158 5 -162 9 -4 4 -9 172 -10 372 l-3 365
-327 5 c-179 3 -329 8 -333 11 -3 4 1 34 9 67 9 33 16 65 16 71 0 17 -354 15
-367 -1z m683 -423 c3 -80 32 -75 -416 -75 -219 0 -405 3 -414 6 -12 5 -16 20
-16 60 l0 54 423 -2 422 -3 1 -40z m-4 -287 c3 -7 3 -34 0 -61 l-4 -47 -417 2
-416 3 -3 44 c-6 77 -38 71 422 71 322 0 415 -3 418 -12z m-4 -335 c5 -10 7
-39 4 -66 l-4 -47 -417 2 -416 3 -3 49 c-2 27 -1 55 2 62 4 12 76 14 415 14
381 0 411 -1 419 -17z"/>
<path d="M1140 2760 l0 -890 298 0 c225 0 308 4 342 14 95 29 128 60 161 147
18 47 19 90 19 834 l0 785 -410 0 -410 0 0 -890z m508 378 l2 -238 -42 -1
c-108 -3 -141 0 -149 13 -14 22 -11 442 3 456 9 9 40 12 98 10 l85 -3 3 -237z
m0 -738 c2 -213 -1 -280 -11 -293 -10 -14 -28 -18 -88 -19 -42 0 -81 2 -86 5
-16 10 -16 569 -1 579 7 4 51 7 98 6 l85 -3 3 -275z"/>
<path d="M2023 3014 c-3 -9 -1 -25 5 -35 7 -10 12 -25 12 -32 0 -8 7 -27 15
-44 20 -41 81 -298 95 -408 7 -49 18 -93 24 -97 6 -4 78 -8 160 -7 l149 0 -7
57 c-14 118 -70 362 -118 507 l-23 70 -153 3 c-134 2 -153 1 -159 -14z"/>
<path d="M1167 1353 c-4 -3 -7 -32 -7 -64 l0 -58 123 -3 122 -3 3 -204 c1
-130 6 -209 13 -218 12 -14 145 -19 166 -5 8 5 12 67 14 207 1 110 6 206 12
213 7 8 45 12 127 12 l118 0 5 29 c3 16 3 45 0 65 l-6 36 -342 0 c-188 0 -345
-3 -348 -7z"/>
<path d="M1966 1327 c-3 -18 -3 -48 0 -65 l7 -32 111 0 c74 0 116 -4 124 -12
18 -18 17 -272 -2 -287 -10 -8 -51 -11 -120 -10 -58 1 -108 0 -111 -3 -12 -12
-15 -89 -5 -108 10 -19 21 -20 355 -20 l345 0 0 65 0 65 -114 0 c-63 0 -121 3
-130 6 -14 5 -16 27 -16 143 0 93 4 141 12 149 8 8 52 12 130 12 l119 0 -3 63
-3 62 -346 3 -347 2 -6 -33z"/>
<path d="M2772 1078 l3 -283 74 -3 c53 -2 77 1 82 10 5 7 9 104 9 215 0 234
-10 216 115 211 l70 -3 3 -212 c1 -117 6 -214 10 -214 41 -7 155 -2 162 7 5 6
11 102 12 215 l3 204 78 3 c50 2 84 -1 93 -9 11 -9 14 -52 14 -215 0 -187 1
-204 18 -205 127 -9 142 -7 148 15 3 12 4 118 2 236 l-3 215 -28 37 c-16 20
-42 41 -59 47 -20 7 -168 11 -420 11 l-388 0 2 -282z"/>
<path d="M3853 1349 c-18 -5 -45 -25 -60 -46 l-28 -36 0 -192 0 -192 28 -36
c18 -24 40 -40 65 -46 20 -5 161 -10 313 -11 302 -1 307 0 303 56 -1 16 -3 39
-3 52 l-1 22 -258 0 c-187 0 -261 3 -270 12 -17 17 -17 269 0 286 9 9 83 12
270 12 l259 0 -3 63 -3 62 -290 2 c-159 1 -304 -3 -322 -8z"/>
<path d="M4943 1353 c-18 -7 -19 -538 -1 -549 18 -11 161 -12 176 -1 9 7 12
63 12 218 l0 209 168 -2 167 -3 3 -29 c2 -15 1 -39 -2 -52 -6 -22 -11 -23
-109 -26 l-102 -3 -3 -57 -3 -58 154 0 c144 0 156 2 188 23 48 32 69 79 69
155 0 78 -18 118 -69 155 l-39 27 -299 -1 c-164 0 -304 -3 -310 -6z"/>
<path d="M5832 1348 c-23 -8 -41 -25 -58 -54 -25 -43 -26 -46 -22 -231 5 -279
-10 -268 353 -268 290 0 299 2 335 62 18 31 20 52 20 214 0 194 -4 211 -55
259 l-27 25 -256 2 c-163 1 -269 -2 -290 -9z m446 -130 c8 -8 12 -56 12 -149
0 -116 -2 -138 -16 -143 -31 -12 -329 -7 -342 6 -13 13 -18 252 -6 282 5 14
30 16 173 16 117 0 171 -4 179 -12z"/>
<path d="M6560 1076 l0 -285 408 2 c386 2 408 3 433 21 55 42 60 72 59 310 0
121 -3 223 -6 227 -3 5 -41 9 -85 9 l-79 0 0 -215 c0 -165 -3 -215 -12 -216
-85 -7 -154 -7 -166 0 -12 7 -14 42 -13 207 1 109 -3 205 -7 212 -6 9 -31 12
-88 10 l-79 -3 -3 -210 c-2 -138 -6 -211 -13 -216 -12 -7 -166 -5 -174 2 -2 3
-5 99 -7 214 l-3 210 -82 3 -83 3 0 -285z"/>
<path d="M7655 1353 c-35 -9 -72 -41 -86 -75 -10 -24 -14 -81 -14 -204 0 -150
2 -175 20 -212 11 -22 31 -47 45 -54 39 -19 623 -23 639 -4 7 8 11 36 9 63
l-3 48 -265 5 -265 5 0 150 0 150 263 3 262 2 0 65 0 65 -292 -1 c-161 -1
-302 -4 -313 -6z"/>
<path d="M8367 1354 c-4 -4 -7 -132 -7 -284 l0 -277 83 2 c45 2 85 4 90 4 4 1
7 98 7 216 l0 215 163 -2 162 -3 0 -50 0 -50 -77 -5 c-42 -3 -79 -8 -82 -11
-6 -5 4 -26 74 -154 15 -27 40 -72 55 -100 15 -27 32 -53 39 -57 17 -11 176
-10 176 1 0 6 -21 51 -47 102 l-48 91 31 27 c48 40 64 81 64 158 -1 77 -20
125 -63 157 -27 20 -43 21 -321 24 -160 2 -295 0 -299 -4z"/>
<path d="M4062 1078 l3 -53 185 0 185 0 3 53 3 52 -191 0 -191 0 3 -52z"/>
<path d="M7850 1081 c0 -35 4 -51 16 -55 20 -8 312 -8 342 0 19 6 22 13 22 55
l0 49 -190 0 -190 0 0 -49z"/>
</g>
</svg>
